<svg width="208" height="41" viewBox="0 0 208 41" fill="none" xmlns="http://www.w3.org/2000/svg">
<path d="M186.655 35.2967C186.275 37.1297 185.676 38.5293 184.856 39.497C184.038 40.4646 183.052 40.9485 181.899 40.9485C180.728 40.9485 179.514 40.3397 178.258 39.1195C178.021 38.9042 177.522 38.3778 176.762 37.5404C176.004 36.7043 174.981 35.5678 173.694 34.1323C172.406 32.6967 171.154 31.3569 169.942 30.1128C168.728 28.8686 167.544 27.7122 166.391 26.6409C166.391 26.7871 166.391 26.9585 166.391 27.1566C166.391 27.356 166.383 27.5793 166.37 27.8265C166.351 28.0751 166.343 28.2944 166.343 28.4858C166.343 28.6772 166.343 28.8314 166.343 28.9484C166.343 33.7973 166.768 37.2041 167.617 39.1673C165.759 40.0752 163.91 40.5285 162.071 40.5285C160.665 40.5285 159.685 40.2068 159.13 39.5608C158.574 38.9161 158.297 37.8248 158.297 36.2856C158.297 35.7433 158.383 33.913 158.557 30.7933C158.631 29.2408 158.69 27.7574 158.732 26.3431C158.777 24.9288 158.801 23.5863 158.801 22.313C158.801 20.5265 158.764 18.9673 158.69 17.6341C158.615 16.3023 158.489 15.1379 158.313 14.141C158.139 13.1414 157.891 12.2628 157.57 11.5038C159.487 10.6531 161.293 10.2278 162.989 10.2278C163.955 10.2278 164.722 10.3487 165.292 10.5893C165.861 10.8312 166.27 11.226 166.518 11.775C166.769 12.3253 166.895 13.0696 166.895 14.0081C166.895 14.2991 166.871 14.8322 166.826 15.6084C166.797 16.1973 166.753 16.935 166.693 17.8202C166.636 18.7068 166.582 19.6412 166.529 20.6222C166.478 21.6045 166.433 22.5349 166.391 23.4135C169.798 20.2766 172.463 17.585 174.384 15.3373C176.308 13.0869 177.497 11.2805 177.951 9.9194C181.694 10.9296 183.566 12.3279 183.566 14.1144C183.566 14.6567 183.33 15.2575 182.86 15.9168C182.393 16.5761 181.764 17.2939 180.976 18.0701C180.494 18.5566 180.022 19.0152 179.559 19.4472C179.098 19.8765 178.605 20.3271 178.078 20.7977C177.554 21.2655 176.955 21.7972 176.284 22.3927C175.611 22.9855 174.814 23.6767 173.89 24.4663C173.861 24.5234 173.817 24.5607 173.758 24.5779C174.331 25.103 174.937 25.6666 175.578 26.2687C176.222 26.8682 176.863 27.465 177.499 28.0605C178.136 28.6533 178.728 29.2129 179.277 29.7406C179.825 30.2696 180.288 30.7162 180.668 31.0804C181.05 31.446 181.438 31.8088 181.83 32.1704C182.226 32.5293 182.629 32.8828 183.04 33.2337C183.858 33.9502 184.548 34.4699 185.11 34.7916C185.673 35.1146 186.188 35.2834 186.655 35.2967Z" fill="white"/>
<path d="M204.763 39.0769C203.125 40.0446 201.64 40.5284 200.31 40.5284C198.689 40.5284 197.776 39.7389 197.572 38.1571C196.577 39.065 195.587 39.7309 194.6 40.1563C193.612 40.5816 192.526 40.7943 191.341 40.7943C189.967 40.7943 188.764 40.5298 187.732 40.0021C186.702 39.4744 185.902 38.742 185.333 37.8062C184.762 36.8678 184.478 35.7832 184.478 34.5523C184.478 33.0423 184.868 31.7384 185.651 30.6391C186.433 29.5412 187.554 28.6918 189.016 28.0924C190.477 27.4902 192.224 27.1885 194.26 27.1885C195.105 27.1885 196.165 27.2775 197.439 27.4543V26.6834C197.439 25.6174 197.052 24.78 196.277 24.1738C195.502 23.5651 194.405 23.2593 192.986 23.2593C190.6 23.2593 188.853 24.0356 187.742 25.5881C186.603 25.0325 186.033 24.2403 186.033 23.2115C186.033 22.3927 186.362 21.6643 187.02 21.0263C187.679 20.3883 188.625 19.8911 189.86 19.5322C191.094 19.1747 192.575 18.9952 194.302 18.9952C197.476 18.9952 199.793 19.6691 201.255 21.0156C202.716 22.3635 203.447 24.4955 203.447 27.4118C203.447 27.441 203.443 27.5912 203.436 27.8637C203.429 28.1336 203.418 28.5257 203.405 29.0388C203.39 29.5492 203.379 30.0583 203.373 30.5647C203.365 31.0685 203.362 31.5629 203.362 32.0481C203.362 35.4482 203.829 37.7903 204.763 39.0769ZM197.349 32.2448V30.8837C196.517 30.7494 195.758 30.6817 195.072 30.6817C193.607 30.6817 192.483 30.9568 191.702 31.5058C190.919 32.0561 190.529 32.8283 190.529 33.8239C190.529 34.6613 190.799 35.3219 191.341 35.8071C191.882 36.2896 192.628 36.5302 193.581 36.5302C194.967 36.5302 196.24 35.9506 197.397 34.7916C197.382 34.5576 197.37 34.2333 197.359 33.8186C197.351 33.4012 197.349 32.8762 197.349 32.2448Z" fill="white"/>
<mask id="mask0_12_2" style="mask-type:luminance" maskUnits="userSpaceOnUse" x="153" y="0" width="55" height="33">
<path d="M153.829 0.604187H207.837V32.5903H153.829V0.604187Z" fill="white"/>
</mask>
<g mask="url(#mask0_12_2)">
<mask id="mask1_12_2" style="mask-type:luminance" maskUnits="userSpaceOnUse" x="149" y="-11" width="59" height="53">
<path d="M158.791 -10.7287L207.806 1.10795L198.138 41.2807L149.125 29.4454L158.791 -10.7287Z" fill="white"/>
</mask>
<g mask="url(#mask1_12_2)">
<mask id="mask2_12_2" style="mask-type:luminance" maskUnits="userSpaceOnUse" x="149" y="-11" width="59" height="53">
<path d="M158.791 -10.7287L207.806 1.10795L198.138 41.2807L149.125 29.4454L158.791 -10.7287Z" fill="white"/>
</mask>
<g mask="url(#mask2_12_2)">
<path fill-rule="evenodd" clip-rule="evenodd" d="M154.056 9.47C158.926 1.58512 169.297 7.55195 169.661 17.7749C169.661 17.7749 186.568 -1.59036 207.615 1.06407C199.774 4.956 187.357 12.5578 180.809 18.5498C173.371 25.3594 166.007 33.6231 163.332 32.4135C161.202 31.4525 162.23 17.6433 154.056 9.47265V9.47Z" fill="white"/>
</g>
</g>
</g>
<path d="M31.7756 37.7757H31.7331C29.5252 39.5063 27.6464 40.3703 26.0966 40.3703C25.5406 40.3703 25.043 40.2639 24.6052 40.0513C24.166 39.8386 23.7785 39.5555 23.4428 39.2006C23.2796 39.0278 23.1098 38.8098 22.9333 38.5466C22.7595 38.2808 22.5857 37.9657 22.4132 37.6002C22.1757 37.115 21.9621 36.6458 21.771 36.1912C21.5826 35.738 21.3862 35.2222 21.1819 34.644C20.9762 34.0672 20.736 33.3667 20.46 32.5439H9.48951C8.26083 34.9338 7.64782 36.7641 7.64782 38.0362C7.64782 38.419 7.73539 38.8311 7.91319 39.2697C6.58234 39.9436 5.21434 40.2799 3.81052 40.2799C2.63889 40.2799 1.79368 40.0712 1.27355 39.6525C0.756069 39.2351 0.498657 38.52 0.498657 37.5098C0.498657 37.337 0.530502 37.1111 0.594192 36.8346C0.660535 36.5554 0.793222 36.154 0.992252 35.633C1.18995 35.1119 1.49646 34.4021 1.91044 33.5009C2.32708 32.601 2.8764 31.4367 3.55576 30.0078C4.23777 28.5802 5.09758 26.8177 6.13519 24.7228C7.10115 22.8194 8.01934 20.9306 8.88976 19.0551C9.76019 17.1809 10.5828 15.3266 11.3577 13.4937C11.1202 13.0258 10.8986 12.627 10.6943 12.2974C10.4926 11.9677 10.3029 11.7005 10.1264 11.4945C11.9097 10.4989 13.6134 10.0005 15.2375 10.0005C16.157 10.0005 16.9385 10.152 17.5834 10.4524C18.2269 10.7502 18.8041 11.234 19.3136 11.9039C19.8258 12.5712 20.3327 13.4671 20.8316 14.5942C20.9908 14.9598 21.2999 15.7028 21.7604 16.822C22.2234 17.9425 22.8285 19.4405 23.5755 21.3147C24.304 23.1902 25.0258 24.9607 25.741 26.6262C26.4588 28.2891 27.1541 29.8522 27.8268 31.3157C29.086 34.01 30.4023 36.1633 31.7756 37.7757ZM11.5966 27.4929H18.4167C17.9204 25.9975 17.399 24.5181 16.851 23.0533C16.3016 21.5899 15.7364 20.1477 15.1526 18.7254C13.8788 21.6856 12.6926 24.6085 11.5966 27.4929Z" fill="white"/>
<path d="M52.3782 39.0038C50.6971 39.8838 49.1752 40.3224 47.8138 40.3224C46.7762 40.3224 46.0358 40.0858 45.59 39.61C45.1442 39.1354 44.9212 38.3552 44.9212 37.2705V36.7654C43.0212 39.4172 40.6076 40.7424 37.6819 40.7424C35.3426 40.7424 33.5633 40.0659 32.3425 38.7114C31.1218 37.3543 30.5115 35.3565 30.5115 32.7193C30.5115 32.4296 30.5221 32.0361 30.5433 31.539C30.5645 31.0392 30.5884 30.4371 30.6176 29.7313C30.6455 29.0294 30.6707 28.4047 30.6919 27.8544C30.7158 27.3055 30.7291 26.8323 30.7291 26.4348C30.7291 23.4335 30.3788 21.3546 29.6782 20.1982C31.3301 19.4046 32.9383 19.0072 34.5027 19.0072C35.5987 19.0072 36.3882 19.2398 36.8698 19.7037C37.3501 20.1649 37.5916 20.9213 37.5916 21.974C37.5916 22.3435 37.581 22.8287 37.5598 23.4308C37.5386 24.0303 37.4987 24.76 37.443 25.6214C37.382 26.4867 37.3369 27.2643 37.305 27.9554C37.2758 28.644 37.2626 29.2421 37.2626 29.7525C37.2626 31.0711 37.3581 32.1345 37.5492 32.9426C37.7402 33.7481 38.0587 34.3383 38.5045 34.7131C38.9503 35.0853 39.5673 35.2714 40.3568 35.2714C41.9199 35.2714 43.3608 34.4074 44.6771 32.6768C44.7089 32.0919 44.7315 31.5842 44.7461 31.1509C44.7594 30.7189 44.7673 30.3626 44.7673 30.0822C44.7673 25.1309 44.3281 21.8783 43.4511 20.3258C45.4109 19.4472 47.0774 19.0072 48.4507 19.0072C49.2389 19.0072 49.8572 19.1295 50.303 19.3741C50.7488 19.616 51.0673 20.0068 51.2584 20.5491C51.4494 21.0914 51.545 21.8238 51.545 22.7449C51.545 23.0679 51.4998 24.1951 51.4123 26.1265C51.3234 28.0618 51.2796 29.8363 51.2796 31.4486C51.2796 35.1385 51.6458 37.6573 52.3782 39.0038Z" fill="white"/>
<path d="M61.0902 20.0227C61.3689 20.0054 61.6501 19.9855 61.9341 19.9642C62.2207 19.943 62.51 19.9257 62.8045 19.9111C63.2397 19.8832 63.6803 19.8552 64.1261 19.826C64.5746 19.7941 64.8797 19.7781 65.039 19.7781C65.725 19.7781 66.2225 19.8991 66.5304 20.1397C66.8382 20.3816 66.9921 20.7963 66.9921 21.3838C66.9921 22.2491 66.6047 23.266 65.8298 24.4357C65.2592 24.2164 64.4551 24.1061 63.4149 24.1061C63.3578 24.1061 63.176 24.1193 62.8682 24.1433C62.5604 24.1645 62.2114 24.1831 61.8226 24.1964C61.4365 24.2111 61.1061 24.2257 60.8301 24.239C60.6099 27.0223 60.5011 29.2408 60.5011 30.8957C60.5011 34.0326 61.3476 35.6011 63.0434 35.6011C63.6272 35.6011 64.203 35.3817 64.7736 34.9418C65.4025 35.7473 65.7183 36.5368 65.7183 37.3131C65.7183 38.2808 65.2486 39.0544 64.3118 39.6312C63.3777 40.2094 62.0628 40.4979 60.3684 40.4979C58.2029 40.4979 56.5921 39.9316 55.5386 38.7965C54.4877 37.6627 53.9623 35.9387 53.9623 33.6232C53.9623 33.2125 53.9835 32.6489 54.026 31.9324C54.0711 31.2133 54.1295 30.3414 54.2011 29.3166C54.2754 28.2891 54.3365 27.3653 54.3869 26.5465C54.44 25.7277 54.4731 25.0099 54.4877 24.3932C53.815 24.4822 53.2312 24.5261 52.7363 24.5261C51.9892 24.5261 51.4439 24.4025 51.1016 24.1539C50.7579 23.9027 50.5867 23.4773 50.5867 22.8779C50.5867 22.2186 50.8415 21.34 51.351 20.2407C51.8181 20.3298 52.3661 20.3736 52.9963 20.3736C53.1582 20.3736 53.3811 20.367 53.6651 20.3524C53.9517 20.3351 54.3073 20.3125 54.7319 20.2832C54.7319 20.2088 54.7319 20.1224 54.7319 20.0227C54.7319 19.9204 54.7385 19.7941 54.7531 19.6452C54.7664 19.5003 54.7743 19.3794 54.7743 19.2837C54.7743 19.188 54.7743 19.1122 54.7743 19.0551C54.7743 17.0772 54.4824 15.5087 53.8986 14.3497C55.5651 13.5455 57.0698 13.1427 58.4152 13.1427C59.4369 13.1427 60.1893 13.382 60.6709 13.8605C61.1552 14.3364 61.398 15.0781 61.398 16.0883C61.398 16.1919 61.3715 16.5721 61.3184 17.2314C61.268 17.8907 61.1924 18.8211 61.0902 20.0227Z" fill="white"/>
<path d="M88.5365 39.0942C87 39.8851 85.348 40.2799 83.5793 40.2799C82.4395 40.2799 81.6474 40.0353 81.2015 39.5462C80.7557 39.0544 80.5328 38.2063 80.5328 37.0047C80.5328 36.7429 80.5434 36.3481 80.5647 35.8191C80.5859 35.2914 80.6257 34.6254 80.6867 33.8199C80.7716 32.2076 80.8141 30.8678 80.8141 29.8004C80.8141 28.4074 80.7106 27.2882 80.5063 26.4402C80.3046 25.5895 79.9569 24.9661 79.466 24.5686C78.9777 24.1725 78.301 23.9732 77.4386 23.9732C76.3558 23.9732 74.9812 24.4131 73.3147 25.2917C73.2536 25.9696 73.2098 26.714 73.182 27.5248C73.1528 28.337 73.1395 29.2342 73.1395 30.2151C73.1395 34.5962 73.5124 37.5564 74.2594 39.0942C72.5889 39.8851 70.9581 40.2799 69.3659 40.2799C68.6043 40.2799 68.0085 40.1709 67.5773 39.9503C67.1447 39.7309 66.8409 39.3654 66.6644 38.855C66.4906 38.3419 66.4043 37.6454 66.4043 36.7655C66.4043 36.5315 66.4256 35.9201 66.468 34.9312C66.5131 33.9422 66.5742 32.5758 66.6485 30.8319C66.7188 29.088 66.7759 27.4078 66.8183 25.7915C66.8634 24.1725 66.8873 22.6067 66.8873 21.0967C66.8873 19.6612 66.8674 18.3772 66.8289 17.242C66.7931 16.1042 66.74 15.1259 66.6697 14.3071C66.5954 13.4883 66.476 12.7639 66.3141 12.1326C66.1549 11.5025 65.9585 10.9668 65.725 10.5269C67.5216 9.70807 69.1748 9.29868 70.6821 9.29868C71.8073 9.29868 72.5928 9.56319 73.0387 10.0909C73.4845 10.6159 73.7074 11.5238 73.7074 12.8131C73.7074 12.9593 73.7034 13.164 73.6968 13.4299C73.6888 13.693 73.6782 14.0147 73.6649 14.3975C73.6358 14.9226 73.5986 15.6071 73.5535 16.4498C73.511 17.2939 73.4659 18.1805 73.4208 19.1082C73.3783 20.0374 73.3425 20.9133 73.3147 21.7348C75.508 19.7994 77.826 18.8318 80.2674 18.8318C82.6372 18.8318 84.451 19.5176 85.7076 20.8894C86.9628 22.2585 87.5917 24.239 87.5917 26.8336C87.5917 27.4331 87.5705 28.3848 87.5281 29.6888C87.4989 30.3348 87.4763 30.9103 87.4591 31.4167C87.4445 31.9205 87.4378 32.3552 87.4378 32.7194C87.4378 35.7539 87.804 37.8793 88.5365 39.0942Z" fill="white"/>
<path d="M105.626 34.3463C106.535 35.3432 106.99 36.2431 106.99 37.0472C106.99 38.1186 106.356 38.9693 105.09 39.5993C103.827 40.2307 102.033 40.5457 99.7086 40.5457C95.8621 40.5457 92.9071 39.6233 90.8452 37.7757C88.7819 35.9294 87.7509 33.2989 87.7509 29.8855C87.7509 28.2306 88.0216 26.7259 88.563 25.3715C89.1043 24.0183 89.8792 22.85 90.8876 21.8677C91.896 20.8867 93.0955 20.1277 94.4861 19.5921C95.8766 19.0577 97.4185 18.7892 99.1142 18.7892C100.985 18.7892 102.614 19.1162 104.002 19.7675C105.393 20.4202 106.472 21.3147 107.24 22.4525C108.007 23.5877 108.392 24.8863 108.392 26.3498C108.392 27.5939 108.106 28.5802 107.537 29.3059C106.967 30.029 106.059 30.5447 104.814 30.8531C103.572 31.1615 101.935 31.3157 99.905 31.3157C98.882 31.3157 97.8882 31.2838 96.9222 31.22C95.9563 31.1535 95.0195 31.0605 94.1146 30.9435V31.0286C94.1146 32.5957 94.64 33.8013 95.6909 34.644C96.7444 35.4881 98.2663 35.9094 100.255 35.9094C102.538 35.9094 104.327 35.3884 105.626 34.3463ZM94.3959 27.578C95.464 27.6949 96.3862 27.784 97.1611 27.8438C97.9359 27.901 98.5582 27.9289 99.0293 27.9289C100.108 27.9289 100.878 27.8199 101.338 27.5992C101.801 27.3799 102.033 26.9333 102.033 26.2594C102.033 25.2917 101.728 24.5155 101.12 23.9306C100.515 23.3457 99.7153 23.0533 98.7214 23.0533C97.5498 23.0533 96.5878 23.4454 95.8342 24.2283C95.0805 25.0126 94.6002 26.1291 94.3959 27.578Z" fill="white"/>
<path d="M130.902 39.0942V39.1368C129.338 39.8997 127.699 40.2799 125.987 40.2799C124.876 40.2799 124.083 40.0499 123.61 39.5887C123.135 39.1288 122.898 38.3552 122.898 37.2706C122.898 36.9024 122.909 36.4225 122.93 35.8297C122.952 35.2382 122.991 34.5244 123.052 33.687C123.137 32.0175 123.18 30.7069 123.18 29.7525C123.18 27.7321 122.92 26.2793 122.4 25.3927C121.882 24.5075 120.959 24.0635 119.629 24.0635C118.415 24.0635 117.068 24.562 115.59 25.5576C115.459 29.177 115.394 31.228 115.394 31.7091C115.394 35.1691 115.745 37.6454 116.45 39.1368C114.839 39.8997 113.202 40.2799 111.535 40.2799C110.378 40.2799 109.579 40.0167 109.142 39.4877C108.702 38.96 108.483 38.0362 108.483 36.7176C108.483 36.162 108.571 34.7637 108.749 32.5226C108.823 31.3955 108.881 30.3414 108.924 29.3591C108.966 28.3781 108.988 27.461 108.988 26.6103C108.988 23.2288 108.651 20.8349 107.979 19.4272C109.281 19.0311 110.452 18.8318 111.493 18.8318C112.705 18.8318 113.653 19.0816 114.332 19.5814C115.012 20.0786 115.395 20.7963 115.484 21.7348C117.794 19.7994 120.119 18.8318 122.458 18.8318C125.104 18.8318 127.012 19.5801 128.179 21.0755C129.35 22.5682 129.936 24.9195 129.936 28.1309C129.936 28.422 129.932 28.7517 129.926 29.1198C129.918 29.4854 129.907 29.8948 129.894 30.348C129.879 30.8026 129.869 31.1801 129.862 31.4805C129.854 31.7823 129.851 32.0122 129.851 32.1717C129.851 35.5718 130.202 37.8793 130.902 39.0942Z" fill="white"/>
<path d="M139.681 20.0227C139.959 20.0054 140.241 19.9855 140.525 19.9642C140.811 19.943 141.101 19.9257 141.395 19.9111C141.83 19.8832 142.271 19.8552 142.717 19.826C143.165 19.7941 143.47 19.7781 143.63 19.7781C144.316 19.7781 144.813 19.8991 145.121 20.1397C145.429 20.3816 145.583 20.7963 145.583 21.3838C145.583 22.2491 145.195 23.266 144.42 24.4357C143.85 24.2164 143.046 24.1061 142.005 24.1061C141.948 24.1061 141.767 24.1193 141.459 24.1433C141.151 24.1645 140.802 24.1831 140.413 24.1964C140.027 24.2111 139.697 24.2257 139.421 24.239C139.2 27.0223 139.092 29.2408 139.092 30.8957C139.092 34.0326 139.938 35.6011 141.634 35.6011C142.218 35.6011 142.794 35.3817 143.364 34.9418C143.993 35.7473 144.309 36.5368 144.309 37.3131C144.309 38.2808 143.839 39.0544 142.902 39.6312C141.968 40.2094 140.653 40.4979 138.959 40.4979C136.794 40.4979 135.183 39.9316 134.129 38.7965C133.078 37.6627 132.553 35.9387 132.553 33.6232C132.553 33.2125 132.574 32.6489 132.617 31.9324C132.662 31.2133 132.72 30.3414 132.792 29.3166C132.866 28.2891 132.927 27.3653 132.977 26.5465C133.031 25.7277 133.064 25.0099 133.078 24.3932C132.406 24.4822 131.822 24.5261 131.327 24.5261C130.58 24.5261 130.034 24.4025 129.692 24.1539C129.349 23.9027 129.177 23.4773 129.177 22.8779C129.177 22.2186 129.432 21.34 129.942 20.2407C130.409 20.3298 130.957 20.3736 131.587 20.3736C131.749 20.3736 131.972 20.367 132.256 20.3524C132.542 20.3351 132.898 20.3125 133.322 20.2832C133.322 20.2088 133.322 20.1224 133.322 20.0227C133.322 19.9204 133.329 19.7941 133.344 19.6452C133.357 19.5003 133.365 19.3794 133.365 19.2837C133.365 19.188 133.365 19.1122 133.365 19.0551C133.365 17.0772 133.073 15.5087 132.489 14.3497C134.156 13.5455 135.66 13.1427 137.006 13.1427C138.028 13.1427 138.78 13.382 139.262 13.8605C139.746 14.3364 139.989 15.0781 139.989 16.0883C139.989 16.1919 139.962 16.5721 139.909 17.2314C139.859 17.8907 139.783 18.8211 139.681 20.0227Z" fill="white"/>
<path d="M149.538 8.8999C150.21 8.8999 150.804 9.04744 151.321 9.3412C151.842 9.63628 152.252 10.0364 152.553 10.5428C152.853 11.0466 153.004 11.6208 153.004 12.2655C153.004 12.954 152.823 13.5827 152.463 14.1529C152.104 14.7245 151.621 15.1738 151.014 15.5034C150.409 15.8331 149.719 15.9979 148.944 15.9979C147.935 15.9979 147.123 15.7028 146.508 15.11C145.895 14.5145 145.589 13.7356 145.589 12.7706C145.589 12.0515 145.765 11.4028 146.115 10.8246C146.465 10.2477 146.939 9.7825 147.537 9.43159C148.138 9.07802 148.806 8.8999 149.538 8.8999ZM153.306 39.0942C151.672 39.8851 150.005 40.2799 148.307 40.2799C147.195 40.2799 146.417 40.0393 145.972 39.5568C145.526 39.0716 145.303 38.2515 145.303 37.0951C145.303 36.6246 145.368 35.3126 145.499 33.1606C145.559 32.0906 145.603 31.0804 145.632 30.13C145.66 29.177 145.674 28.2745 145.674 27.4238C145.674 24.0423 145.337 21.6484 144.666 20.2407C146.318 19.4512 147.97 19.0551 149.623 19.0551C150.691 19.0551 151.466 19.305 151.948 19.8047C152.432 20.3019 152.675 21.1127 152.675 22.2399C152.675 22.9417 152.607 24.4078 152.473 26.6369C152.401 27.7508 152.347 28.7676 152.309 29.6887C152.273 30.6112 152.256 31.438 152.256 32.1717C152.256 35.0721 152.606 37.3796 153.306 39.0942Z" fill="white"/>
</svg>
