<svg width="219" height="49" viewBox="0 0 219 49" fill="none" xmlns="http://www.w3.org/2000/svg">
<g filter="url(#filter0_d_12_166)">
<path d="M193.208 35.2611C192.822 37.1221 192.211 38.5441 191.376 39.5279C190.543 40.5099 189.539 41 188.364 41C187.174 41 185.938 40.3833 184.656 39.149C184.417 38.9258 183.911 38.3902 183.137 37.5421C182.365 36.6922 181.324 35.5371 180.016 34.0769C178.705 32.6194 177.431 31.2584 176.195 29.9922C174.961 28.727 173.756 27.5509 172.582 26.4651C172.582 26.6136 172.582 26.7885 172.582 26.9898C172.582 27.1893 172.575 27.4152 172.56 27.6675C172.543 27.9226 172.534 28.1476 172.534 28.3416C172.534 28.5338 172.534 28.6896 172.534 28.808C172.534 33.7371 172.966 37.1987 173.831 39.1927C171.942 40.1164 170.059 40.5773 168.182 40.5773C166.754 40.5773 165.757 40.2512 165.192 39.5972C164.625 38.9413 164.343 37.8318 164.343 36.2668C164.343 35.7157 164.432 33.8546 164.613 30.6846C164.685 29.1059 164.744 27.5983 164.787 26.1627C164.833 24.7252 164.857 23.3588 164.857 22.0634C164.857 20.247 164.818 18.662 164.744 17.3084C164.671 15.9529 164.544 14.7687 164.365 13.7557C164.187 12.7427 163.935 11.85 163.607 11.0775C165.557 10.2131 167.395 9.78037 169.122 9.78037C170.102 9.78037 170.883 9.90335 171.464 10.1484C172.044 10.3943 172.46 10.7961 172.713 11.3545C172.968 11.9138 173.095 12.669 173.095 13.6209C173.095 13.9197 173.072 14.4644 173.026 15.2533C172.997 15.849 172.952 16.5969 172.891 17.4978C172.833 18.3997 172.777 19.3489 172.724 20.3472C172.673 21.3438 172.626 22.2884 172.582 23.1821C176.049 19.9956 178.761 17.2592 180.719 14.9727C182.676 12.6872 183.885 10.8516 184.346 9.46701C188.156 10.4945 190.061 11.9174 190.061 13.7338C190.061 14.2859 189.822 14.8962 189.344 15.5666C188.867 16.2353 188.227 16.964 187.424 17.7529C186.933 18.2466 186.453 18.713 185.985 19.1521C185.517 19.5893 185.014 20.0466 184.478 20.5221C183.943 20.9986 183.334 21.5387 182.649 22.1436C181.964 22.7467 181.153 23.4499 180.216 24.2533C180.187 24.3116 180.141 24.3481 180.081 24.3627C180.661 24.9001 181.278 25.474 181.932 26.0861C182.587 26.6965 183.239 27.3022 183.888 27.9044C184.536 28.5074 185.138 29.0768 185.694 29.6133C186.252 30.148 186.726 30.6026 187.115 30.9761C187.501 31.3477 187.894 31.7157 188.295 32.0801C188.697 32.4445 189.108 32.8052 189.526 33.1623C190.358 33.8938 191.061 34.423 191.635 34.751C192.207 35.0771 192.732 35.2465 193.208 35.2611Z" fill="#87CEEB"/>
<path d="M211.637 39.1016C209.97 40.0854 208.461 40.5773 207.106 40.5773C205.454 40.5773 204.524 39.7739 204.316 38.1652C203.303 39.0888 202.294 39.7666 201.289 40.1984C200.285 40.6301 199.182 40.847 197.978 40.847C196.577 40.847 195.352 40.5782 194.303 40.0417C193.254 39.5051 192.439 38.7609 191.859 37.8081C191.278 36.8561 190.988 35.7548 190.988 34.5032C190.988 32.971 191.386 31.6456 192.183 30.5279C192.979 29.411 194.122 28.5475 195.611 27.9372C197.098 27.3277 198.878 27.0226 200.946 27.0226C201.808 27.0226 202.886 27.1118 204.181 27.2886V26.5088C204.181 25.4211 203.786 24.5685 202.997 23.9509C202.21 23.3342 201.094 23.0254 199.65 23.0254C197.224 23.0254 195.445 23.8143 194.314 25.3902C193.153 24.8245 192.573 24.0201 192.573 22.978C192.573 22.1454 192.908 21.4057 193.578 20.759C194.248 20.1104 195.212 19.6039 196.47 19.2395C197.728 18.8752 199.235 18.693 200.99 18.693C204.219 18.693 206.578 19.378 208.067 20.748C209.555 22.1163 210.3 24.2816 210.3 27.2448C210.3 27.274 210.296 27.427 210.289 27.704C210.282 27.9791 210.269 28.3771 210.253 28.8991C210.238 29.4192 210.227 29.9367 210.22 30.4513C210.212 30.9642 210.209 31.4661 210.209 31.9562C210.209 35.4105 210.684 37.7926 211.637 39.1016ZM204.093 32.1566V30.772C203.246 30.639 202.473 30.5716 201.773 30.5716C200.284 30.5716 199.142 30.8512 198.346 31.4096C197.549 31.969 197.151 32.7542 197.151 33.7671C197.151 34.6152 197.425 35.2857 197.974 35.7785C198.525 36.2695 199.286 36.5145 200.254 36.5145C201.668 36.5145 202.962 35.9261 204.137 34.7473C204.123 34.5096 204.112 34.1789 204.104 33.7562C204.097 33.3317 204.093 32.7979 204.093 32.1566Z" fill="#87CEEB"/>
<path d="M35.8336 37.7777H35.7863C33.5399 39.5368 31.6277 40.4158 30.0497 40.4158C29.4833 40.4158 28.977 40.3083 28.5308 40.0915C28.0865 39.8756 27.6931 39.5887 27.3507 39.2316C27.185 39.0521 27.0129 38.829 26.8335 38.5611C26.656 38.2915 26.4784 37.9709 26.3017 37.5992C26.0613 37.1091 25.8437 36.6327 25.6498 36.1708C25.4576 35.7099 25.2573 35.1852 25.0488 34.5967C24.8394 34.0092 24.5944 33.2987 24.313 32.4652H13.1531C11.9019 34.8919 11.2773 36.7529 11.2773 38.0474C11.2773 38.4336 11.3656 38.8508 11.5432 39.2972C10.1901 39.9822 8.79872 40.3247 7.36912 40.3247C6.179 40.3247 5.31942 40.1134 4.79038 39.6907C4.26316 39.2662 4 38.5393 4 37.5117C4 37.3323 4.03278 37.1018 4.09834 36.8194C4.16572 36.5352 4.29958 36.1299 4.49899 35.6024C4.70023 35.0732 5.01347 34.3508 5.4387 33.4344C5.86303 32.5189 6.42212 31.3356 7.11416 29.8854C7.80619 28.4333 8.68034 26.6424 9.73661 24.5145C10.7173 22.5788 11.6506 20.6585 12.5375 18.7537C13.4235 16.8471 14.2612 14.9633 15.0507 13.1023C14.8103 12.6268 14.5854 12.2205 14.3769 11.8853C14.1702 11.55 13.9771 11.2786 13.7978 11.0691C15.6134 10.0561 17.3472 9.54962 18.9989 9.54962C19.9359 9.54962 20.7327 9.70266 21.3883 10.0087C22.0439 10.3148 22.6312 10.8067 23.1512 11.4845C23.6729 12.1604 24.1865 13.0713 24.6918 14.2173C24.8567 14.5917 25.1735 15.3486 25.6425 16.4873C26.1105 17.6242 26.7242 19.1463 27.4818 21.0529C28.2267 22.9577 28.9643 24.755 29.6927 26.4457C30.4212 28.1364 31.1278 29.7251 31.8125 31.2117C33.0919 33.9518 34.4322 36.1408 35.8336 37.7777ZM15.2947 27.3275H22.2369C21.7316 25.8098 21.1998 24.3059 20.6416 22.8165C20.0825 21.328 19.5061 19.8614 18.9115 18.4185C17.6167 21.4264 16.4111 24.3961 15.2947 27.3275Z" fill="#4682B4"/>
<path d="M56.8013 39.0312C55.0894 39.923 53.5415 40.3684 52.1574 40.3684C51.1011 40.3684 50.3454 40.127 49.8919 39.6433C49.4375 39.1605 49.2108 38.3671 49.2108 37.264V36.7502C47.2749 39.4466 44.8191 40.7948 41.8424 40.7948C39.4622 40.7948 37.6511 40.1061 36.4081 38.7288C35.1643 37.3514 34.5433 35.3237 34.5433 32.6437C34.5433 32.3449 34.5542 31.9432 34.5761 31.4376C34.5997 30.9302 34.6271 30.319 34.6562 29.6048C34.6853 28.8906 34.7108 28.2548 34.7327 27.6955C34.7545 27.1371 34.7655 26.657 34.7655 26.2562C34.7655 23.2027 34.4085 21.0885 33.6946 19.9124C35.3774 19.109 37.0146 18.7064 38.6081 18.7064C39.7226 18.7064 40.5248 18.9414 41.0156 19.4096C41.5083 19.8787 41.755 20.6503 41.755 21.7234C41.755 22.095 41.7423 22.586 41.7186 23.1955C41.6968 23.8058 41.6567 24.55 41.5984 25.4291C41.5374 26.309 41.4928 27.0979 41.4636 27.7975C41.4345 28.4971 41.4199 29.1074 41.4199 29.6267C41.4199 30.9676 41.5155 32.0479 41.7077 32.866C41.9016 33.6849 42.2258 34.2852 42.6802 34.666C43.1336 35.0449 43.7628 35.2344 44.5669 35.2344C46.1595 35.2344 47.6246 34.3553 48.9631 32.5963C48.9941 32.0015 49.0178 31.485 49.0323 31.0477C49.0469 30.6087 49.0542 30.2461 49.0542 29.9619C49.0542 24.9317 48.6071 21.6268 47.7138 20.0473C49.7071 19.1536 51.4044 18.7064 52.8057 18.7064C53.6089 18.7064 54.2372 18.8293 54.6888 19.0744C55.1423 19.3203 55.4664 19.7184 55.6613 20.2695C55.8552 20.8216 55.9527 21.5658 55.9527 22.5031C55.9527 22.8311 55.9071 23.978 55.8179 25.9428C55.7278 27.9086 55.6831 29.7096 55.6831 31.3465C55.6831 35.0996 56.0556 37.6611 56.8013 39.0312Z" fill="#4682B4"/>
<path d="M65.6681 19.7339C65.9522 19.7193 66.2381 19.7011 66.5277 19.6793C66.819 19.6574 67.1123 19.6392 67.4091 19.6246C67.8553 19.5936 68.306 19.5627 68.7604 19.5335C69.2139 19.5044 69.5225 19.4898 69.6855 19.4898C70.3867 19.4898 70.8929 19.6128 71.2044 19.8578C71.5176 20.1038 71.6742 20.5237 71.6742 21.1185C71.6742 21.9985 71.279 23.0333 70.4905 24.223C69.9095 23.9998 69.0918 23.8878 68.0356 23.8878C67.9746 23.8878 67.7879 23.9005 67.4747 23.9242C67.1632 23.9461 66.8099 23.9643 66.4148 23.9789C66.0214 23.9935 65.6836 24.008 65.4022 24.0226C65.1782 26.8502 65.0671 29.1056 65.0671 30.7891C65.0671 33.9764 65.9303 35.5696 67.6568 35.5696C68.2514 35.5696 68.8387 35.3465 69.4196 34.8992C70.058 35.7181 70.3776 36.5225 70.3776 37.3114C70.3776 38.2934 69.9013 39.0777 68.9498 39.6652C67.9973 40.2537 66.6588 40.547 64.9323 40.547C62.7297 40.547 61.0915 39.9704 60.0189 38.8162C58.9481 37.663 58.4126 35.9103 58.4126 33.5583C58.4126 33.1411 58.4345 32.5672 58.4782 31.8385C58.5237 31.1097 58.5847 30.2243 58.6603 29.1822C58.7332 28.14 58.7951 27.2027 58.8461 26.3692C58.8989 25.5339 58.9335 24.8042 58.9481 24.1793C58.2651 24.2695 57.6705 24.3141 57.1633 24.3141C56.4057 24.3141 55.8521 24.1884 55.5025 23.9352C55.1528 23.6801 54.978 23.2483 54.978 22.638C54.978 21.9675 55.2375 21.0739 55.7574 19.9562C56.2327 20.0464 56.7918 20.091 57.4329 20.091C57.595 20.091 57.8208 20.0837 58.1103 20.0691C58.4017 20.0546 58.7632 20.0327 59.1957 20.0036C59.1957 19.9289 59.1957 19.8387 59.1957 19.7339C59.1957 19.6301 59.203 19.5035 59.2176 19.355C59.2322 19.2074 59.2394 19.0844 59.2394 18.987C59.2394 18.8904 59.2394 18.8111 59.2394 18.7501C59.2394 16.7415 58.9417 15.1492 58.3471 13.9732C60.0444 13.1551 61.5778 12.7452 62.9473 12.7452C63.989 12.7452 64.7548 12.9875 65.2456 13.4703C65.7355 13.954 65.9813 14.7092 65.9813 15.7367C65.9813 15.8415 65.954 16.2286 65.9012 16.8991C65.8502 17.5695 65.7719 18.5151 65.6681 19.7339Z" fill="#4682B4"/>
<path d="M93.603 39.1186C92.0386 39.923 90.3577 40.3247 88.5584 40.3247C87.3975 40.3247 86.5898 40.076 86.1363 39.5777C85.6819 39.0776 85.4552 38.2177 85.4552 36.998C85.4552 36.7283 85.4661 36.3266 85.488 35.7919C85.5098 35.2553 85.5508 34.5776 85.6118 33.7587C85.6992 32.1217 85.7429 30.7599 85.7429 29.674C85.7429 28.2584 85.6382 27.1188 85.4297 26.2562C85.223 25.3917 84.8697 24.7586 84.3698 24.3578C83.8717 23.9552 83.1842 23.7529 82.3083 23.7529C81.2056 23.7529 79.806 24.2002 78.1087 25.0938C78.0504 25.7788 78.0049 26.5349 77.9739 27.3602C77.9448 28.1865 77.9302 29.0983 77.9302 30.0967C77.9302 34.5494 78.3099 37.5573 79.0703 39.1186C77.373 39.923 75.713 40.3247 74.0913 40.3247C73.3164 40.3247 72.709 40.2136 72.2701 39.9895C71.833 39.7663 71.5244 39.3946 71.345 38.8745C71.1674 38.3525 71.0791 37.6447 71.0791 36.7502C71.0791 36.5124 71.1009 35.8921 71.1447 34.8882C71.1884 33.8825 71.2475 32.4943 71.3231 30.7234C71.3978 28.9507 71.4579 27.2418 71.5016 25.5967C71.5471 23.9524 71.5708 22.3628 71.5708 20.827C71.5708 19.3695 71.5508 18.0641 71.5125 16.91C71.4761 15.7567 71.4196 14.7629 71.345 13.9294C71.2721 13.094 71.1528 12.3571 70.988 11.7176C70.825 11.0763 70.6247 10.5325 70.3871 10.0852C72.2173 9.25263 73.8991 8.83542 75.4316 8.83542C76.5771 8.83542 77.3775 9.10415 77.8319 9.64069C78.2854 10.1781 78.513 11.1009 78.513 12.4099C78.513 12.5584 78.5075 12.767 78.4984 13.0367C78.4911 13.3045 78.4802 13.6306 78.4657 14.0168C78.4365 14.5543 78.3983 15.2511 78.3527 16.1083C78.309 16.9637 78.2653 17.8637 78.2216 18.8084C78.1779 19.7539 78.1397 20.643 78.1087 21.4756C80.3423 19.5107 82.7016 18.5278 85.1857 18.5278C87.5969 18.5278 89.4417 19.2237 90.722 20.6157C92.0013 22.0076 92.6414 24.0217 92.6414 26.657C92.6414 27.2673 92.6196 28.2347 92.5759 29.5611C92.5467 30.2169 92.5231 30.8018 92.5067 31.3137C92.4921 31.8266 92.4848 32.2702 92.4848 32.6437C92.4848 35.7245 92.8572 37.8825 93.603 39.1186Z" fill="#4682B4"/>
<path d="M110.998 34.2943C111.921 35.3073 112.382 36.2237 112.382 37.0417C112.382 38.1275 111.739 38.9911 110.452 39.6324C109.164 40.2737 107.338 40.5943 104.97 40.5943C101.056 40.5943 98.0499 39.657 95.9519 37.7814C93.854 35.9039 92.805 33.2303 92.805 29.7615C92.805 28.0781 93.08 26.5495 93.6318 25.174C94.1827 23.7967 94.9703 22.6088 95.9956 21.6104C97.0228 20.612 98.2429 19.8423 99.6561 19.3003C101.071 18.7564 102.643 18.4841 104.369 18.4841C106.272 18.4841 107.931 18.8157 109.345 19.4788C110.76 20.1402 111.858 21.0474 112.637 22.2007C113.419 23.3549 113.81 24.6766 113.81 26.1651C113.81 27.4313 113.52 28.4333 112.94 29.1712C112.359 29.9072 111.436 30.4319 110.171 30.7453C108.906 31.0568 107.239 31.2117 105.171 31.2117C104.129 31.2117 103.116 31.1789 102.133 31.1133C101.151 31.0459 100.2 30.9521 99.2773 30.8327V30.9238C99.2773 32.518 99.8128 33.7423 100.884 34.5967C101.956 35.4521 103.504 35.8793 105.528 35.8793C107.851 35.8793 109.674 35.351 110.998 34.2943ZM99.5687 27.4149C100.654 27.537 101.591 27.6281 102.381 27.6882C103.169 27.7465 103.802 27.7756 104.278 27.7756C105.38 27.7756 106.166 27.6645 106.635 27.4404C107.103 27.2172 107.338 26.7627 107.338 26.0776C107.338 25.0938 107.028 24.305 106.409 23.7092C105.792 23.1144 104.978 22.8165 103.965 22.8165C102.775 22.8165 101.796 23.2155 101.029 24.0116C100.264 24.8087 99.7772 25.9428 99.5687 27.4149Z" fill="#4682B4"/>
<path d="M136.722 39.1186V39.1623C135.129 39.9376 133.463 40.3247 131.722 40.3247C130.59 40.3247 129.782 40.0906 129.299 39.6215C128.816 39.1532 128.575 38.3671 128.575 37.264C128.575 36.8923 128.586 36.4059 128.607 35.8028C128.629 35.2007 128.67 34.4747 128.731 33.6239C128.819 31.9286 128.862 30.5959 128.862 29.6267C128.862 27.5716 128.597 26.095 128.068 25.1959C127.541 24.2949 126.601 23.844 125.246 23.844C124.012 23.844 122.643 24.3505 121.141 25.3635C121.007 29.0391 120.94 31.1233 120.94 31.6161C120.94 35.1287 121.297 37.6447 122.011 39.1623C120.374 39.9376 118.708 40.3247 117.01 40.3247C115.835 40.3247 115.024 40.0578 114.577 39.5231C114.13 38.9865 113.907 38.0474 113.907 36.7065C113.907 36.1408 113.996 34.7188 114.177 32.4396C114.25 31.2955 114.308 30.2242 114.352 29.2258C114.397 28.2275 114.421 27.2974 114.421 26.4347C114.421 22.995 114.078 20.561 113.394 19.1327C114.717 18.73 115.908 18.5278 116.967 18.5278C118.2 18.5278 119.163 18.782 119.855 19.2893C120.547 19.7949 120.938 20.5237 121.028 21.4756C123.378 19.5107 125.745 18.5278 128.127 18.5278C130.819 18.5278 132.761 19.2875 133.951 20.8051C135.143 22.3237 135.739 24.714 135.739 27.976C135.739 28.273 135.735 28.6082 135.728 28.9817C135.721 29.3534 135.71 29.7706 135.695 30.2315C135.681 30.6934 135.67 31.0769 135.663 31.3829C135.655 31.6872 135.652 31.9204 135.652 32.0825C135.652 35.5368 136.009 37.8825 136.722 39.1186Z" fill="#4682B4"/>
<path d="M145.656 19.7339C145.94 19.7193 146.226 19.7011 146.516 19.6793C146.807 19.6574 147.101 19.6392 147.397 19.6246C147.844 19.5936 148.294 19.5627 148.749 19.5335C149.202 19.5044 149.511 19.4898 149.674 19.4898C150.375 19.4898 150.881 19.6128 151.193 19.8578C151.506 20.1038 151.662 20.5237 151.662 21.1185C151.662 21.9985 151.267 23.0333 150.479 24.223C149.898 23.9998 149.08 23.8878 148.024 23.8878C147.963 23.8878 147.776 23.9005 147.463 23.9242C147.151 23.9461 146.798 23.9643 146.403 23.9789C146.01 23.9935 145.672 24.008 145.39 24.0226C145.166 26.8502 145.055 29.1056 145.055 30.7891C145.055 33.9764 145.919 35.5696 147.645 35.5696C148.24 35.5696 148.827 35.3465 149.408 34.8992C150.046 35.7181 150.366 36.5225 150.366 37.3114C150.366 38.2934 149.89 39.0777 148.938 39.6652C147.986 40.2537 146.647 40.547 144.921 40.547C142.718 40.547 141.08 39.9704 140.007 38.8162C138.936 37.663 138.401 35.9103 138.401 33.5583C138.401 33.1411 138.423 32.5672 138.466 31.8385C138.512 31.1097 138.573 30.2243 138.649 29.1822C138.721 28.14 138.783 27.2027 138.834 26.3692C138.887 25.5339 138.922 24.8042 138.936 24.1793C138.253 24.2695 137.659 24.3141 137.152 24.3141C136.394 24.3141 135.84 24.1884 135.491 23.9352C135.141 23.6801 134.966 23.2483 134.966 22.638C134.966 21.9675 135.226 21.0739 135.746 19.9562C136.221 20.0464 136.78 20.091 137.421 20.091C137.583 20.091 137.809 20.0837 138.099 20.0691C138.39 20.0546 138.751 20.0327 139.184 20.0036C139.184 19.9289 139.184 19.8387 139.184 19.7339C139.184 19.6301 139.191 19.5035 139.206 19.355C139.22 19.2074 139.228 19.0844 139.228 18.987C139.228 18.8904 139.228 18.8111 139.228 18.7501C139.228 16.7415 138.93 15.1492 138.335 13.9732C140.033 13.1551 141.566 12.7452 142.936 12.7452C143.977 12.7452 144.743 12.9875 145.234 13.4703C145.724 13.954 145.97 14.7092 145.97 15.7367C145.97 15.8415 145.942 16.2286 145.889 16.8991C145.838 17.5695 145.76 18.5151 145.656 19.7339Z" fill="#4682B4"/>
<path d="M155.686 8.43463C156.371 8.43463 156.976 8.58403 157.503 8.88281C158.032 9.17978 158.45 9.58515 158.756 10.0998C159.062 10.6127 159.215 11.1966 159.215 11.8525C159.215 12.5521 159.031 13.1925 158.665 13.7727C158.301 14.3539 157.81 14.8112 157.194 15.1464C156.576 15.4816 155.873 15.6493 155.085 15.6493C154.058 15.6493 153.231 15.3486 152.604 14.7456C151.98 14.1407 151.668 13.3482 151.668 12.3662C151.668 11.6357 151.847 10.9761 152.204 10.3877C152.561 9.80013 153.043 9.32735 153.653 8.97026C154.265 8.61318 154.943 8.43463 155.686 8.43463ZM159.528 39.1186C157.86 39.923 156.163 40.3247 154.436 40.3247C153.305 40.3247 152.511 40.0797 152.058 39.5887C151.604 39.0959 151.377 38.2614 151.377 37.0854C151.377 36.6099 151.444 35.2772 151.581 33.0882C151.639 32.0024 151.683 30.9767 151.712 30.0093C151.743 29.04 151.759 28.1245 151.759 27.2619C151.759 23.8222 151.417 21.3872 150.732 19.9562C152.412 19.1527 154.094 18.7501 155.777 18.7501C156.862 18.7501 157.65 19.0042 158.141 19.5116C158.633 20.0172 158.88 20.8434 158.88 21.9894C158.88 22.7036 158.813 24.1929 158.68 26.4566C158.604 27.5889 158.547 28.6237 158.509 29.5611C158.472 30.4994 158.454 31.3392 158.454 32.0826C158.454 35.0322 158.812 37.3769 159.528 39.1186Z" fill="#4682B4"/>
<mask id="mask0_12_166" style="mask-type:luminance" maskUnits="userSpaceOnUse" x="160" y="0" width="55" height="33">
<path d="M160.002 0H214.549V32.648H160.002V0Z" fill="white"/>
</mask>
<g mask="url(#mask0_12_166)">
<mask id="mask1_12_166" style="mask-type:luminance" maskUnits="userSpaceOnUse" x="154" y="-12" width="61" height="54">
<path d="M164.849 -11.5197L214.623 0.483704L204.754 41.4403L154.98 29.4378L164.849 -11.5197Z" fill="white"/>
</mask>
<g mask="url(#mask1_12_166)">
<mask id="mask2_12_166" style="mask-type:luminance" maskUnits="userSpaceOnUse" x="154" y="-12" width="61" height="54">
<path d="M164.849 -11.5197L214.623 0.483704L204.754 41.4403L154.98 29.4378L164.849 -11.5197Z" fill="white"/>
</mask>
<g mask="url(#mask2_12_166)">
<path fill-rule="evenodd" clip-rule="evenodd" d="M160.027 9.01099C164.985 0.996567 175.54 7.06068 175.91 17.4526C175.91 17.4526 193.119 -2.23271 214.541 0.46549C206.561 4.4226 193.923 12.1483 187.258 18.2397C179.687 25.1601 172.191 33.5607 169.469 32.331C167.302 31.3545 168.348 17.3178 160.027 9.01281V9.01099Z" fill="#FFD700"/>
</g>
</g>
</g>
</g>
<defs>
<filter id="filter0_d_12_166" x="0" y="0.211456" width="218.541" height="48.7885" filterUnits="userSpaceOnUse" color-interpolation-filters="sRGB">
<feFlood flood-opacity="0" result="BackgroundImageFix"/>
<feColorMatrix in="SourceAlpha" type="matrix" values="0 0 0 0 0 0 0 0 0 0 0 0 0 0 0 0 0 0 127 0" result="hardAlpha"/>
<feOffset dy="4"/>
<feGaussianBlur stdDeviation="2"/>
<feComposite in2="hardAlpha" operator="out"/>
<feColorMatrix type="matrix" values="0 0 0 0 0 0 0 0 0 0 0 0 0 0 0 0 0 0 0.25 0"/>
<feBlend mode="normal" in2="BackgroundImageFix" result="effect1_dropShadow_12_166"/>
<feBlend mode="normal" in="SourceGraphic" in2="effect1_dropShadow_12_166" result="shape"/>
</filter>
</defs>
</svg>
