<svg xmlns="http://www.w3.org/2000/svg" xmlns:xlink="http://www.w3.org/1999/xlink" width="1366" zoomAndPan="magnify" viewBox="0 0 1024.5 836.249979" height="1115" preserveAspectRatio="xMidYMid meet" version="1.0"><defs><clipPath id="c2352341fa"><path d="M 190 20.714844 L 598 20.714844 L 598 593 L 190 593 Z M 190 20.714844 " clip-rule="nonzero"/></clipPath></defs><g clip-path="url(#c2352341fa)"><path fill="#4682b4" d="M 241.226562 373.3125 C 253.027344 298.261719 293.351562 232.304688 354.769531 187.589844 C 400.425781 154.347656 453.675781 135.816406 508.828125 133.34375 L 471.820312 170.351562 L 505.515625 204.046875 L 597.21875 112.347656 L 505.523438 20.660156 L 471.828125 54.355469 L 503.367188 85.890625 C 440.121094 89.351562 379.132812 110.902344 326.722656 149.0625 C 255.011719 201.269531 207.929688 278.28125 194.148438 365.910156 C 181.761719 444.691406 198.125 525.316406 240.21875 592.929688 L 280.671875 567.746094 C 244.625 509.839844 230.617188 440.792969 241.226562 373.3125 Z M 241.226562 373.3125 " fill-opacity="1" fill-rule="nonzero"/></g><path fill="#4682b4" d="M 310.535156 607.53125 L 275.050781 639.339844 C 293.207031 659.589844 313.792969 677.5625 336.242188 692.75 L 362.949219 653.285156 C 343.726562 640.277344 326.089844 624.882812 310.535156 607.53125 Z M 310.535156 607.53125 " fill-opacity="1" fill-rule="nonzero"/><path fill="#4682b4" d="M 810.9375 242.402344 L 770.480469 267.589844 C 806.527344 325.492188 820.539062 394.542969 809.929688 462.019531 C 798.128906 537.070312 757.804688 603.027344 696.386719 647.742188 C 650.730469 680.984375 597.480469 699.511719 542.328125 701.988281 L 579.335938 664.980469 L 545.640625 631.285156 L 453.9375 722.984375 L 545.632812 814.675781 L 579.328125 780.976562 L 547.800781 749.449219 C 611.039062 745.984375 672.023438 724.425781 724.433594 686.269531 C 796.144531 634.0625 843.226562 557.050781 857.007812 469.425781 C 869.390625 390.640625 853.03125 310.019531 810.9375 242.402344 Z M 810.9375 242.402344 " fill-opacity="1" fill-rule="nonzero"/><path fill="#4682b4" d="M 740.621094 227.804688 L 776.105469 195.992188 C 757.949219 175.742188 737.363281 157.773438 714.914062 142.582031 L 688.207031 182.050781 C 707.433594 195.058594 725.066406 210.449219 740.621094 227.804688 Z M 740.621094 227.804688 " fill-opacity="1" fill-rule="nonzero"/><path fill="#4682b4" d="M 708.988281 418.121094 C 708.988281 314.960938 625.363281 231.332031 522.199219 231.332031 C 419.035156 231.332031 335.410156 314.960938 335.410156 418.121094 C 335.410156 521.28125 419.035156 604.910156 522.199219 604.910156 C 625.363281 604.910156 708.988281 521.28125 708.988281 418.121094 Z M 429.289062 491.605469 L 454.628906 454.867188 C 469.40625 471.332031 503.191406 483.582031 526.421875 484.003906 C 545.847656 484.425781 564.007812 474.292969 564.007812 459.085938 C 564.007812 444.726562 552.183594 438.8125 522.617188 437.128906 C 483.34375 434.171875 436.464844 419.8125 436.464844 372.511719 C 436.464844 334.351562 467.78125 315.839844 499.695312 309.796875 L 499.695312 280.835938 L 544.703125 280.835938 L 544.703125 308.515625 C 567.585938 311.007812 586.628906 318.464844 605.394531 334.929688 L 576.675781 368.71875 C 561.894531 354.777344 545.003906 350.128906 525.152344 350.128906 C 500.660156 350.128906 487.144531 357.734375 487.144531 370.824219 C 487.144531 384.339844 499.390625 391.9375 525.996094 393.632812 C 565.273438 396.164062 615.109375 405.027344 615.109375 460.351562 C 615.109375 492.925781 591.527344 521.492188 544.703125 527.5625 L 544.703125 555.40625 L 499.695312 555.40625 L 499.695312 527.25 C 475.523438 524.074219 451.71875 514.96875 429.289062 491.605469 Z M 429.289062 491.605469 " fill-opacity="1" fill-rule="nonzero"/></svg>