<svg xmlns="http://www.w3.org/2000/svg" xmlns:xlink="http://www.w3.org/1999/xlink" width="1366" zoomAndPan="magnify" viewBox="0 0 1024.5 836.249979" height="1115" preserveAspectRatio="xMidYMid meet" version="1.0"><defs><clipPath id="94a0cc7e03"><path d="M 129 49.089844 L 895 49.089844 L 895 783 L 129 783 Z M 129 49.089844 " clip-rule="nonzero"/></clipPath></defs><g clip-path="url(#94a0cc7e03)"><path fill="#4682b4" d="M 730.203125 781.820312 C 725.269531 781.890625 720.605469 780.796875 716.214844 778.546875 L 512 671.082031 L 307.484375 778.546875 C 306.265625 779.1875 305.007812 779.738281 303.710938 780.199219 C 302.414062 780.664062 301.089844 781.035156 299.742188 781.316406 C 298.394531 781.597656 297.03125 781.78125 295.65625 781.875 C 294.28125 781.964844 292.910156 781.960938 291.535156 781.859375 C 290.160156 781.761719 288.800781 781.566406 287.453125 781.277344 C 286.105469 780.988281 284.785156 780.609375 283.492188 780.136719 C 282.199219 779.667969 280.941406 779.105469 279.726562 778.460938 C 278.507812 777.816406 277.34375 777.089844 276.226562 776.28125 C 275.113281 775.472656 274.058594 774.589844 273.0625 773.636719 C 272.070312 772.683594 271.148438 771.664062 270.296875 770.582031 C 269.445312 769.5 268.671875 768.363281 267.976562 767.175781 C 267.28125 765.984375 266.671875 764.753906 266.152344 763.480469 C 265.628906 762.203125 265.195312 760.902344 264.851562 759.566406 C 264.511719 758.230469 264.261719 756.878906 264.105469 755.511719 C 263.953125 754.144531 263.894531 752.769531 263.929688 751.394531 C 263.964844 750.015625 264.09375 748.648438 264.320312 747.289062 L 303.617188 519.558594 L 138.101562 358.210938 C 137.121094 357.242188 136.214844 356.210938 135.382812 355.113281 C 134.546875 354.019531 133.792969 352.871094 133.117188 351.671875 C 132.441406 350.472656 131.851562 349.234375 131.347656 347.949219 C 130.84375 346.667969 130.429688 345.359375 130.109375 344.019531 C 129.785156 342.683594 129.558594 341.328125 129.425781 339.957031 C 129.289062 338.585938 129.253906 337.214844 129.308594 335.839844 C 129.367188 334.460938 129.515625 333.097656 129.761719 331.742188 C 130.007812 330.386719 130.347656 329.054688 130.777344 327.75 C 131.207031 326.441406 131.726562 325.167969 132.335938 323.933594 C 132.941406 322.699219 133.632812 321.511719 134.402344 320.371094 C 135.175781 319.230469 136.023438 318.148438 136.945312 317.125 C 137.867188 316.105469 138.855469 315.148438 139.910156 314.265625 C 140.964844 313.378906 142.074219 312.570312 143.242188 311.839844 C 144.410156 311.109375 145.621094 310.460938 146.875 309.898438 C 148.132812 309.335938 149.421875 308.859375 150.746094 308.476562 C 152.066406 308.09375 153.410156 307.800781 154.773438 307.601562 L 383.398438 274.261719 L 485.503906 65.878906 C 486.117188 64.648438 486.816406 63.464844 487.59375 62.328125 C 488.371094 61.191406 489.226562 60.113281 490.152344 59.097656 C 491.082031 58.078125 492.074219 57.132812 493.136719 56.253906 C 494.195312 55.371094 495.308594 54.570312 496.480469 53.84375 C 497.652344 53.121094 498.867188 52.480469 500.125 51.925781 C 501.386719 51.367188 502.679688 50.902344 504.003906 50.523438 C 505.328125 50.148438 506.671875 49.863281 508.035156 49.675781 C 509.398438 49.484375 510.769531 49.390625 512.148438 49.390625 C 513.523438 49.390625 514.894531 49.484375 516.257812 49.675781 C 517.621094 49.863281 518.964844 50.148438 520.292969 50.523438 C 521.617188 50.902344 522.90625 51.367188 524.167969 51.925781 C 525.425781 52.480469 526.644531 53.121094 527.8125 53.84375 C 528.984375 54.570312 530.101562 55.371094 531.160156 56.253906 C 532.21875 57.132812 533.214844 58.078125 534.140625 59.097656 C 535.070312 60.113281 535.921875 61.191406 536.703125 62.328125 C 537.480469 63.464844 538.175781 64.648438 538.789062 65.878906 L 640.898438 274.261719 L 869.226562 307.601562 C 870.597656 307.800781 871.949219 308.09375 873.277344 308.484375 C 874.609375 308.871094 875.90625 309.347656 877.167969 309.917969 C 878.433594 310.488281 879.652344 311.140625 880.824219 311.878906 C 881.996094 312.617188 883.113281 313.4375 884.171875 314.332031 C 885.230469 315.226562 886.21875 316.1875 887.144531 317.222656 C 888.066406 318.253906 888.914062 319.347656 889.6875 320.5 C 890.457031 321.652344 891.144531 322.851562 891.746094 324.097656 C 892.351562 325.347656 892.867188 326.628906 893.289062 327.949219 C 893.714844 329.269531 894.042969 330.609375 894.28125 331.976562 C 894.519531 333.339844 894.660156 334.714844 894.703125 336.101562 C 894.75 337.488281 894.695312 338.867188 894.546875 340.246094 C 894.402344 341.625 894.15625 342.984375 893.820312 344.328125 C 893.480469 345.671875 893.050781 346.988281 892.527344 348.269531 C 892.007812 349.554688 891.398438 350.796875 890.703125 351.996094 C 890.007812 353.195312 889.234375 354.339844 888.378906 355.429688 C 887.523438 356.519531 886.597656 357.546875 885.597656 358.507812 L 720.378906 519.558594 L 759.378906 747.289062 C 759.5625 748.363281 759.691406 749.445312 759.757812 750.535156 C 759.824219 751.621094 759.828125 752.710938 759.777344 753.800781 C 759.722656 754.890625 759.609375 755.972656 759.4375 757.046875 C 759.265625 758.125 759.035156 759.1875 758.75 760.242188 C 758.460938 761.292969 758.113281 762.324219 757.710938 763.335938 C 757.308594 764.351562 756.851562 765.339844 756.339844 766.300781 C 755.832031 767.265625 755.269531 768.199219 754.65625 769.101562 C 754.042969 770 753.382812 770.867188 752.671875 771.695312 C 751.964844 772.523438 751.210938 773.3125 750.417969 774.058594 C 749.621094 774.804688 748.789062 775.503906 747.917969 776.160156 C 747.046875 776.8125 746.140625 777.417969 745.203125 777.972656 C 744.261719 778.527344 743.296875 779.03125 742.304688 779.480469 C 741.308594 779.929688 740.296875 780.324219 739.257812 780.660156 C 738.222656 780.996094 737.167969 781.277344 736.101562 781.5 C 735.035156 781.722656 733.957031 781.882812 732.871094 781.988281 C 731.785156 782.089844 730.699219 782.136719 729.609375 782.121094 Z M 512 607.671875 C 516.933594 607.605469 521.597656 608.695312 525.988281 610.949219 L 690.613281 697.574219 L 659.058594 513.902344 C 658.667969 511.53125 658.5625 509.148438 658.75 506.757812 C 658.9375 504.363281 659.40625 502.023438 660.15625 499.742188 C 660.90625 497.460938 661.921875 495.304688 663.195312 493.269531 C 664.46875 491.234375 665.96875 489.378906 667.691406 487.703125 L 801.054688 356.722656 L 616.785156 329.929688 C 614.398438 329.570312 612.09375 328.933594 609.863281 328.015625 C 607.632812 327.09375 605.546875 325.921875 603.601562 324.496094 C 601.65625 323.070312 599.910156 321.433594 598.367188 319.582031 C 596.820312 317.730469 595.515625 315.722656 594.457031 313.558594 L 512 148.339844 L 429.539062 315.34375 C 428.480469 317.511719 427.175781 319.519531 425.632812 321.367188 C 424.085938 323.21875 422.339844 324.855469 420.394531 326.28125 C 418.449219 327.710938 416.363281 328.882812 414.132812 329.800781 C 411.902344 330.71875 409.597656 331.359375 407.210938 331.714844 L 222.941406 356.722656 L 356.308594 486.8125 C 358.03125 488.484375 359.527344 490.339844 360.800781 492.375 C 362.078125 494.410156 363.089844 496.570312 363.839844 498.851562 C 364.59375 501.132812 365.0625 503.46875 365.246094 505.863281 C 365.433594 508.257812 365.332031 510.640625 364.941406 513.007812 L 333.386719 697.574219 L 498.304688 610.949219 C 502.605469 608.746094 507.167969 607.652344 512 607.671875 Z M 512 607.671875 " fill-opacity="1" fill-rule="nonzero"/></g></svg>