<svg xmlns="http://www.w3.org/2000/svg" xmlns:xlink="http://www.w3.org/1999/xlink" width="1366" zoomAndPan="magnify" viewBox="0 0 1024.5 836.249979" height="1115" preserveAspectRatio="xMidYMid meet" version="1.0"><defs><clipPath id="56f6032441"><path d="M 156.171875 61.921875 L 868 61.921875 L 868 773.785156 L 156.171875 773.785156 Z M 156.171875 61.921875 " clip-rule="nonzero"/></clipPath></defs><g clip-path="url(#56f6032441)"><path fill="#4682b4" d="M 763.605469 166.140625 C 696.398438 98.933594 607.042969 61.921875 511.996094 61.921875 C 416.953125 61.921875 327.597656 98.933594 260.390625 166.140625 C 193.183594 233.347656 156.171875 322.703125 156.171875 417.746094 C 156.171875 512.792969 193.183594 602.148438 260.390625 669.355469 C 327.597656 736.558594 416.953125 773.574219 511.996094 773.574219 C 607.042969 773.574219 696.398438 736.558594 763.605469 669.355469 C 830.808594 602.148438 867.824219 512.792969 867.824219 417.746094 C 867.824219 322.703125 830.808594 233.347656 763.605469 166.140625 Z M 195.527344 417.746094 C 195.527344 378.117188 202.871094 340.175781 216.234375 305.183594 L 344.222656 305.183594 C 338.484375 340.996094 335.488281 378.90625 335.488281 417.746094 C 335.488281 455.285156 338.277344 491.960938 343.644531 526.707031 L 214.859375 526.707031 C 202.359375 492.71875 195.527344 456.015625 195.527344 417.746094 Z M 374.84375 417.746094 C 374.84375 378.65625 378.015625 340.6875 384.082031 305.183594 L 492.320312 305.183594 L 492.320312 526.707031 L 383.46875 526.707031 C 377.800781 492.246094 374.84375 455.515625 374.84375 417.746094 Z M 605.0625 188.375 C 615.855469 211.507812 624.800781 237.601562 631.753906 265.828125 L 531.675781 265.828125 L 531.675781 104.925781 C 558.355469 114.707031 584.320312 143.917969 605.0625 188.375 Z M 492.320312 104.925781 L 492.320312 265.828125 L 392.238281 265.828125 C 399.191406 237.601562 408.140625 211.507812 418.933594 188.375 C 439.675781 143.917969 465.640625 114.707031 492.320312 104.925781 Z M 492.320312 566.0625 L 492.320312 730.570312 C 465.640625 720.785156 439.675781 691.574219 418.933594 647.121094 C 407.683594 623.007812 398.441406 595.671875 391.371094 566.0625 Z M 531.675781 730.570312 L 531.675781 566.0625 L 632.625 566.0625 C 625.554688 595.671875 616.3125 623.007812 605.0625 647.121094 C 584.320312 691.574219 558.355469 720.785156 531.675781 730.570312 Z M 531.675781 526.707031 L 531.675781 305.183594 L 639.914062 305.183594 C 645.976562 340.6875 649.152344 378.65625 649.152344 417.746094 C 649.152344 455.515625 646.195312 492.242188 640.523438 526.707031 Z M 679.773438 305.183594 L 807.761719 305.183594 C 821.125 340.175781 828.464844 378.117188 828.464844 417.746094 C 828.464844 456.015625 821.636719 492.71875 809.132812 526.707031 L 680.351562 526.707031 C 685.71875 491.960938 688.507812 455.285156 688.507812 417.746094 C 688.507812 378.90625 685.511719 340.996094 679.773438 305.183594 Z M 789.546875 265.828125 L 672.160156 265.828125 C 664.316406 231.460938 653.765625 199.683594 640.726562 171.734375 C 630.613281 150.058594 619.308594 131.382812 607.0625 115.875 C 685.375 140.589844 750.621094 194.996094 789.546875 265.828125 Z M 416.933594 115.875 C 404.683594 131.382812 393.378906 150.058594 383.265625 171.734375 C 370.226562 199.683594 359.679688 231.460938 351.835938 265.828125 L 234.449219 265.828125 C 273.375 194.996094 338.621094 140.589844 416.933594 115.875 Z M 232.507812 566.0625 L 351.011719 566.0625 C 358.933594 601.816406 369.773438 634.835938 383.265625 663.757812 C 393.378906 685.433594 404.683594 704.113281 416.933594 719.621094 C 337.300781 694.488281 271.183594 638.648438 232.507812 566.0625 Z M 607.0625 719.621094 C 619.308594 704.113281 630.613281 685.433594 640.726562 663.757812 C 654.222656 634.835938 665.0625 601.816406 672.984375 566.0625 L 791.488281 566.0625 C 752.8125 638.648438 686.695312 694.488281 607.0625 719.621094 Z M 607.0625 719.621094 " fill-opacity="1" fill-rule="nonzero"/></g></svg>