<svg xmlns="http://www.w3.org/2000/svg" xmlns:xlink="http://www.w3.org/1999/xlink" width="1366" zoomAndPan="magnify" viewBox="0 0 1024.5 836.249979" height="1115" preserveAspectRatio="xMidYMid meet" version="1.0"><defs><clipPath id="07a5b93de2"><path d="M 140.03125 42.996094 L 886.359375 42.996094 L 886.359375 789.324219 L 140.03125 789.324219 Z M 140.03125 42.996094 " clip-rule="nonzero"/></clipPath></defs><g clip-path="url(#07a5b93de2)"><path fill="#2196f3" d="M 513.195312 42.996094 C 307.425781 42.996094 140.03125 210.390625 140.03125 416.160156 C 140.03125 621.929688 307.425781 789.324219 513.195312 789.324219 C 718.964844 789.324219 886.359375 621.929688 886.359375 416.160156 C 886.359375 210.390625 718.964844 42.996094 513.195312 42.996094 Z M 513.195312 42.996094 " fill-opacity="1" fill-rule="nonzero"/></g><path fill="#fafafa" d="M 702.328125 337.082031 L 500.195312 539.210938 C 494.132812 545.277344 486.171875 548.324219 478.210938 548.324219 C 470.25 548.324219 462.289062 545.277344 456.226562 539.210938 L 355.160156 438.144531 C 343 425.988281 343 406.335938 355.160156 394.175781 C 367.320312 382.015625 386.972656 382.015625 399.132812 394.175781 L 478.210938 473.253906 L 658.355469 293.109375 C 670.515625 280.949219 690.167969 280.949219 702.328125 293.109375 C 714.488281 305.269531 714.488281 324.921875 702.328125 337.082031 Z M 702.328125 337.082031 " fill-opacity="1" fill-rule="nonzero"/></svg>